<svg width="197" height="61" viewBox="0 0 197 61" fill="none" xmlns="http://www.w3.org/2000/svg">
<path d="M196.351 0.567833H0.351074V60.9645H196.351V0.567833Z" fill="#B61732"/>
<path d="M40.1801 36.7552C40.9596 37.9035 41.8066 39.0056 42.7169 40.0559C43.3469 40.766 44.2112 41.2328 45.1565 41.3735V42.746C43.8985 42.7117 42.6474 42.6362 41.3894 42.6019C40.1314 42.5676 38.8873 42.7117 37.6293 42.746L32.2359 35.1974C30.9779 33.475 29.3446 31.6015 28.2812 31.677C28.0866 31.677 27.8642 31.7113 27.6696 31.7113V36.6591C27.6696 39.7403 27.6696 41.5039 31.2838 41.3941V42.7666C29.1153 42.7323 26.919 42.6568 24.7435 42.6225C22.5681 42.5881 20.4552 42.7323 18.2937 42.7666V41.3941C21.9426 41.5039 21.8592 39.7403 21.8592 36.6591V23.9637C21.8592 20.8894 21.9426 19.1258 18.2937 19.2424V17.87C20.4552 17.87 22.589 17.9798 24.7435 18.0141C26.8981 18.0484 28.8511 17.8974 30.9015 17.87C32.7294 17.9386 35.5026 18.0552 37.1567 18.7689C38.3097 19.1878 39.2967 19.9599 39.9733 20.9724C40.6499 21.9849 40.9805 23.1847 40.9168 24.396C40.9168 27.7243 38.0672 29.831 34.9535 30.3183L40.1801 36.7552ZM29.1153 29.9271C32.7642 29.9271 34.6268 28.5546 34.6268 24.8284C34.6268 21.3972 33.1812 19.613 29.6157 19.613C29.1917 19.613 27.899 19.613 27.7878 20.0247C27.6874 21.1863 27.6479 22.3521 27.6696 23.5177V29.9271H29.1153Z" fill="white"/>
<path d="M45.4553 30.3388C45.4553 22.3098 51.9538 17.5473 59.5852 17.5473C67.2166 17.5473 73.6873 22.351 73.6873 30.3388C73.6873 38.3265 67.1541 43.1371 59.481 43.1371C51.8079 43.1371 45.4553 38.2511 45.4553 30.3388ZM52.0303 30.1123C52.0303 34.916 53.3578 41.4146 59.481 41.4146C65.6042 41.4146 67.1263 35.7463 67.1263 30.5652C67.1263 25.542 65.7988 19.2767 59.481 19.2767C53.3995 19.2767 52.0303 25.3155 52.0303 30.1123Z" fill="white"/>
<path d="M97.659 17.7739H99.2575L99.5912 25.5832H97.93C97.0195 22.0903 94.7329 19.4071 90.8199 19.4071C84.7384 19.4071 83.2233 25.7823 83.2233 30.6271C83.2233 35.1562 84.7384 41.2363 90.4793 41.2363C93.8294 41.2363 95.4627 39.9599 95.4627 36.6591C95.4627 34.1818 94.9275 33.7014 92.349 33.4338V32.0613H103.657V33.4338C101.113 33.5436 101.273 34.6004 101.273 36.6591V40.5638C99.3243 40.7326 97.4074 41.1596 95.5739 41.8333C93.6526 42.6538 91.5856 43.0899 89.4924 43.1166C81.8471 43.1166 76.6553 38.3472 76.6553 30.73C76.6553 23.3049 81.861 17.5268 89.5689 17.5268C92.2629 17.4131 94.9119 18.2364 97.0543 19.8532L97.659 17.7739Z" fill="white"/>
<path d="M126.572 17.7739H128.17L128.511 25.5833H126.836C125.933 22.0903 123.653 19.4072 119.733 19.4072C113.658 19.4072 112.136 25.7823 112.136 30.6271C112.136 35.1563 113.658 41.2363 119.392 41.2363C122.735 41.2363 124.369 39.9599 124.369 36.6591C124.369 34.1818 123.847 33.7014 121.255 33.4338V32.0613H132.577V33.4338C130.033 33.5436 130.179 34.6004 130.179 36.6591V40.5638C128.233 40.7341 126.318 41.1611 124.487 41.8333C122.565 42.6531 120.498 43.0893 118.405 43.1166C110.76 43.1166 105.561 38.3473 105.561 30.73C105.561 23.305 110.767 17.5269 118.482 17.5269C121.176 17.412 123.825 18.2354 125.967 19.8532L126.572 17.7739Z" fill="white"/>
<path d="M136.949 24.0392C136.949 20.9237 137.06 19.1669 133.376 19.2356V17.8631C135.461 17.8631 137.512 17.9729 139.631 18.0072C141.869 17.9729 144.149 17.8905 146.352 17.8631V19.2356C142.669 19.1875 142.78 20.9512 142.78 24.0392V36.7963C142.78 39.8707 142.745 41.4422 146.352 41.3735V42.746C144.149 42.7117 141.911 42.6362 139.666 42.6019C137.581 42.6019 135.496 42.7117 133.411 42.746V41.3735C137.095 41.4833 136.983 39.7197 136.983 36.6385L136.949 24.0392Z" fill="white"/>
<path d="M148.194 30.3388C148.194 22.3098 154.693 17.5473 162.331 17.5473C169.969 17.5473 176.426 22.351 176.426 30.3388C176.426 38.3265 169.893 43.1371 162.213 43.1371C154.533 43.1371 148.194 38.2511 148.194 30.3388ZM154.769 30.1123C154.769 34.916 156.097 41.4146 162.213 41.4146C168.468 41.4146 169.858 35.7463 169.858 30.5652C169.858 25.542 168.524 19.2767 162.213 19.2767C156.131 19.2767 154.769 25.3155 154.769 30.1123Z" fill="white"/>
</svg>
